{
  "accessors": [
    {
      "bufferView": 2,
      "componentType": 5126,
      "count": 755,
      "max": [
        0.048760317265987396,
        0.051900915801525116,
        0.05089348182082176
      ],
      "min": [
        -0.0492531955242157,
        -0.04866935685276985,
        -0.046446412801742554
      ],
      "type": "VEC3"
    },
    {
      "bufferView": 2,
      "byteOffset": 9060,
      "componentType": 5126,
      "count": 755,
      "max": [
        0.999578595161438,
        0.9986815452575684,
        0.9972686767578125
      ],
      "min": [
        -0.998759925365448,
        -0.9974474310874939,
        -0.9998656511306763
      ],
      "type": "VEC3"
    },
    {
      "bufferView": 3,
      "componentType": 5126,
      "count": 755,
      "max": [
        0.9995595812797546,
        0.770182192325592,
        0.7156615257263184,
        1.0
      ],
      "min": [
        -0.9999894499778748,
        -0.7992452383041382,
        -0.9999829530715942,
        1.0
      ],
      "type": "VEC4"
    },
    {
      "bufferView": 1,
      "componentType": 5126,
      "count": 755,
      "max": [
        0.9921962022781372,
        0.993477463722229
      ],
      "min": [
        0.006034225225448608,
        0.006585359573364258
      ],
      "type": "VEC2"
    },
    {
      "bufferView": 0,
      "componentType": 5125,
      "count": 4032,
      "type": "SCALAR"
    }
  ],
  "asset": {
    "extras": {
      "author": "Meerschaum Digital (https://sketchfab.com/meerschaumdigital)",
      "license": "CC-BY-4.0 (http://creativecommons.org/licenses/by/4.0/)",
      "source": "https://sketchfab.com/3d-models/grapefruit-game-ready-2k-pbr-ae73f81896124c57a2a6b711b5011c6e",
      "title": "Grapefruit (Game Ready / 2K PBR)"
    },
    "generator": "Sketchfab-12.24.0",
    "version": "2.0"
  },
  "bufferViews": [
    {
      "buffer": 0,
      "byteLength": 16128,
      "name": "floatBufferViews",
      "target": 34963
    },
    {
      "buffer": 0,
      "byteLength": 6040,
      "byteOffset": 16128,
      "byteStride": 8,
      "name": "floatBufferViews",
      "target": 34962
    },
    {
      "buffer": 0,
      "byteLength": 18120,
      "byteOffset": 22168,
      "byteStride": 12,
      "name": "floatBufferViews",
      "target": 34962
    },
    {
      "buffer": 0,
      "byteLength": 12080,
      "byteOffset": 40288,
      "byteStride": 16,
      "name": "floatBufferViews",
      "target": 34962
    }
  ],
  "buffers": [
    {
      "byteLength": 52368,
      "uri": "scene.bin"
    }
  ],
  "images": [
    {
      "uri": "textures/Grapefruit_baseColor.jpeg"
    },
    {
      "uri": "textures/Grapefruit_metallicRoughness.png"
    },
    {
      "uri": "textures/Grapefruit_normal.jpeg"
    }
  ],
  "materials": [
    {
      "doubleSided": true,
      "name": "Grapefruit",
      "normalTexture": {
        "index": 2
      },
      "occlusionTexture": {
        "index": 1
      },
      "pbrMetallicRoughness": {
        "baseColorTexture": {
          "index": 0
        },
        "metallicFactor": 0.0,
        "metallicRoughnessTexture": {
          "index": 1
        },
        "roughnessFactor": 0.5
      }
    }
  ],
  "meshes": [
    {
      "name": "Grapefruit_Grapefruit_0",
      "primitives": [
        {
          "attributes": {
            "NORMAL": 1,
            "POSITION": 0,
            "TANGENT": 2,
            "TEXCOORD_0": 3
          },
          "indices": 4,
          "material": 0,
          "mode": 4
        }
      ]
    }
  ],
  "nodes": [
    {
      "children": [
        1
      ],
      "matrix": [
        1.0,
        0.0,
        0.0,
        0.0,
        0.0,
        2.220446049250313e-16,
        -1.0,
        0.0,
        0.0,
        1.0,
        2.220446049250313e-16,
        0.0,
        0.0,
        0.0,
        0.0,
        1.0
      ],
      "name": "Sketchfab_model"
    },
    {
      "children": [
        2
      ],
      "matrix": [
        0.009999999776482582,
        0.0,
        0.0,
        0.0,
        0.0,
        0.0,
        0.009999999776482582,
        0.0,
        0.0,
        -0.009999999776482582,
        0.0,
        0.0,
        0.0,
        0.0,
        0.0,
        1.0
      ],
      "name": "2ca34799f679474bb5fe27f5b20a0a85.fbx"
    },
    {
      "children": [
        3
      ],
      "name": "RootNode"
    },
    {
      "children": [
        4
      ],
      "matrix": [
        100.0,
        0.0,
        0.0,
        0.0,
        -0.0,
        -1.629206793918314e-05,
        -99.99999999999868,
        0.0,
        0.0,
        99.99999999999868,
        -1.629206793918314e-05,
        0.0,
        -7.281610488891602,
        4.689850807189941,
        -6.7879414558410645,
        1.0
      ],
      "name": "Grapefruit"
    },
    {
      "mesh": 0,
      "name": "Grapefruit_Grapefruit_0"
    }
  ],
  "samplers": [
    {
      "magFilter": 9729,
      "minFilter": 9987,
      "wrapS": 10497,
      "wrapT": 10497
    }
  ],
  "scene": 0,
  "scenes": [
    {
      "name": "Sketchfab_Scene",
      "nodes": [
        0
      ]
    }
  ],
  "textures": [
    {
      "sampler": 0,
      "source": 0
    },
    {
      "sampler": 0,
      "source": 1
    },
    {
      "sampler": 0,
      "source": 2
    }
  ]
}
