{"accessors" : [{"bufferView" : 0, "byteOffset" : 0, "componentType" : 5123, "count" : 1920, "type" : "SCALAR", "max" : [1596], "min" : [0]}, {"bufferView" : 1, "byteOffset" : 0, "componentType" : 5126, "count" : 1597, "type" : "VEC3", "max" : [52.180999755859375, 58.26599884033203, 52.180999755859375], "min" : [-52.180999755859375, -58.26599884033203, -52.180999755859375], "name" : "POSITION"}], "asset" : {"generator" : "Aspose.3D 21.11", "version" : "2.0"}, "buffers" : [{"uri" : "data:application/octet-stream;base64,", "byteLength" : 26888}], "bufferViews" : [{"buffer" : 0, "byteOffset" : 0, "byteLength" : 3840, "target" : 34963}, {"buffer" : 0, "byteOffset" : 3844, "byteLength" : 23040, "byteStride" : 12, "target" : 34962}], "meshes" : [{"primitives" : [{"attributes" : {"POSITION" : 1}, "indices" : 0, "mode" : 4}], "name" : ""}], "nodes" : [{"mesh" : 0}], "scene" : 0, "scenes" : [{"nodes" : [0]}]}